<?xml version="1.0" encoding="UTF-8" standalone="no"?>
<svg
   xmlns:dc="http://purl.org/dc/elements/1.1/"
   xmlns:cc="http://creativecommons.org/ns#"
   xmlns:rdf="http://www.w3.org/1999/02/22-rdf-syntax-ns#"
   xmlns:svg="http://www.w3.org/2000/svg"
   xmlns="http://www.w3.org/2000/svg"
   xmlns:sodipodi="http://sodipodi.sourceforge.net/DTD/sodipodi-0.dtd"
   xmlns:inkscape="http://www.inkscape.org/namespaces/inkscape"
   width="73.019997"
   height="67.339996"
   viewBox="0 0 73.019997 67.339996"
   class="graphic mobile"
   version="1.1"
   id="svg2527"
   sodipodi:docname="Bonprix logo.svg"
   inkscape:version="0.92.4 (5da689c313, 2019-01-14)">
  <metadata
     id="metadata2533">
    <rdf:RDF>
      <cc:Work
         rdf:about="">
        <dc:format>image/svg+xml</dc:format>
        <dc:type
           rdf:resource="http://purl.org/dc/dcmitype/StillImage" />
        <dc:title></dc:title>
      </cc:Work>
    </rdf:RDF>
  </metadata>
  <defs
     id="defs2531" />
  <sodipodi:namedview
     pagecolor="#ffffff"
     bordercolor="#666666"
     borderopacity="1"
     objecttolerance="10"
     gridtolerance="10"
     guidetolerance="10"
     inkscape:pageopacity="0"
     inkscape:pageshadow="2"
     inkscape:window-width="725"
     inkscape:window-height="480"
     id="namedview2529"
     showgrid="false"
     inkscape:zoom="3.3333333"
     inkscape:cx="25.36"
     inkscape:cy="34.17"
     inkscape:window-x="80"
     inkscape:window-y="145"
     inkscape:window-maximized="0"
     inkscape:current-layer="svg2527" />
  <g
     id="g2525"
     transform="translate(-8.99,0.17)">
    <path
       class="cls-1"
       d="m 1565.38,1761.96 a 20.27,20.27 0 0 1 -3.14,-6.7 h -7.73 c 0.01,0.03 0.03,0.11 0.03,0.11 a 24.555,24.555 0 0 0 5.88,11.28 26.255,26.255 0 0 0 -6.65,12.54 h 7.53 a 19.6,19.6 0 0 1 4.08,-7.02 19.53,19.53 0 0 1 4.09,7.02 h 7.54 a 26.255,26.255 0 0 0 -6.65,-12.54 24.65,24.65 0 0 0 5.91,-11.39 h -7.74 a 20.169,20.169 0 0 1 -3.15,6.7 z m -16.8,-1.32 a 0.277,0.277 0 0 1 -0.09,0.01 c -0.16,0.01 -0.32,0.02 -0.48,0.02 v 0 c -0.17,0 -0.33,-0.01 -0.48,-0.02 a 0.308,0.308 0 0 1 -0.1,-0.01 6.593,6.593 0 0 1 -3.26,-1.18 v 19.73 h 7.67 v -19.73 a 6.593,6.593 0 0 1 -3.26,1.18 z m -11.21,-5.87 a 23.17,23.17 0 0 0 -8.97,1.84 v 22.58 h 7.67 v -17.52 a 6.035,6.035 0 0 1 2.52,-0.42 4.776,4.776 0 0 1 2.27,0.43 l 1.1,-6.4 a 4.844,4.844 0 0 0 -0.49,-0.14 18.61,18.61 0 0 0 -4.1,-0.37 z m -23.38,0 a 28.9,28.9 0 0 0 -10,1.9 v 30.5 h 7.79 v -7.88 a 9.627,9.627 0 0 0 3.17,0.37 c 6.97,0 11.65,-4.96 11.65,-12.61 0,-7.73 -4.95,-12.28 -12.61,-12.28 z m -0.23,18.49 a 5.108,5.108 0 0 1 -1.98,-0.32 v -11.45 a 8.26,8.26 0 0 1 1.75,-0.23 c 3.67,0 5.14,2.22 5.14,6.02 0,4.04 -1.47,5.98 -4.91,5.98 z m 48.48,-20.79 v -17.24 a 8.362,8.362 0 0 1 2.8,-0.47 c 2.2,0 3.48,1.11 3.48,4.08 v 13.63 h 7.8 v -14.19 c 0,-6.58 -4.22,-10 -11.19,-10 a 31.947,31.947 0 0 0 -10.69,1.9 v 22.29 z m -14.23,-5.22 a 6.665,6.665 0 0 1 2.72,0.58 v 0 a 13.709,13.709 0 0 0 1.78,-7.09 c 0,-7.51 -4.7,-12.46 -12.17,-12.46 -7.47,0 -12.22,4.95 -12.22,12.46 0,7.55 4.75,12.51 12.22,12.51 0.3,0 0.58,-0.01 0.87,-0.02 0.05,-0.01 0.1,-0.01 0.15,-0.02 a 6.7,6.7 0 0 1 6.65,-5.96 z m -11.76,-6.51 c 0,-3.76 1.55,-5.97 4.09,-5.97 2.54,0 4.04,2.21 4.04,5.97 0,3.8 -1.5,6.02 -4.04,6.02 -2.54,0 -4.09,-2.22 -4.09,-6.02 z m -21.9,-12.46 a 17.577,17.577 0 0 0 -2.57,0.14 v -8.59 h -7.79 v 31.66 c 2.33,1.3 6.42,1.76 10.04,1.76 7.66,0 12.57,-4.87 12.57,-12.74 0,-7.6 -4.91,-12.23 -12.25,-12.23 z m -0.69,18.48 a 5.147,5.147 0 0 1 -1.88,-0.28 V 1735 a 9.52,9.52 0 0 1 1.88,-0.23 c 3.67,0 5.01,2.21 5.01,6.01 0,3.76 -1.47,5.98 -5.01,5.98 z"
       transform="translate(-1495,-1720)"
       id="path2523"
       style="fill:#d21929;fill-opacity:1"
       inkscape:connector-curvature="0" />
  </g>
</svg>
