<?xml version="1.0" encoding="utf-8"?>
<!-- Generator: Adobe Illustrator 15.1.0, SVG Export Plug-In  -->
<!DOCTYPE svg PUBLIC "-//W3C//DTD SVG 1.1//EN" "http://www.w3.org/Graphics/SVG/1.1/DTD/svg11.dtd" [
	<!ENTITY ns_flows "http://ns.adobe.com/Flows/1.0/">
]>
<svg version="1.1"
	 xmlns="http://www.w3.org/2000/svg" xmlns:xlink="http://www.w3.org/1999/xlink" xmlns:a="http://ns.adobe.com/AdobeSVGViewerExtensions/3.0/"
	 x="0px" y="0px" width="159px" height="57px" viewBox="0 0 159 57" enable-background="new 0 0 159 57" xml:space="preserve">
<defs>
</defs>
<rect fill="#ed044e" width="159" height="57"/>
<path fill="#FFFFFF" d="M24.5,16h5.2l0.4,2.6c1.4-1.9,3.8-2.8,6.1-2.8c2.5,0,5.1,0.8,6.3,3.3c1.4-2,4.1-3.3,7.3-3.3
	c5.3,0,8.5,3.1,8.5,10.1v15.9h-6V25.9c0-3.3-1.4-4.7-3.8-4.7c-2.3,0-4,1-4.1,4.6v15.9h-6V25.9c0-3.3-1.4-4.7-3.8-4.7
	c-2.3,0-4.2,1.1-4.2,4.5v16.1h-6V16z"/>
<path fill="#FFFFFF" d="M61.8,24.9c-0.4-6.4,3.1-9,9.2-9c6.7,0,9.7,3.4,9.7,10v15.9h-4.9l-0.6-3c-1.4,2-3.9,3.3-6.8,3.3
	c-4.2,0-7.4-2.4-7.4-7.3c0-6.1,5.1-8.5,13.9-7.9c0-3.8-0.7-5.8-3.9-5.8c-2.6,0-3.6,0.9-3.5,3.7H61.8z M66.7,34.4
	c0,1.7,1.5,2.3,3.5,2.3c3.5,0,4.5-2.5,4.7-5.1C68.8,30.9,66.7,32.3,66.7,34.4z"/>
<path fill="#FFFFFF" d="M95.7,13c-4-0.7-6.2,1.1-6.2,4v1.4H95v5.5h-5.5v18h-6V16.9c0-5.9,4.3-10.2,12.2-9.2V13z"/>
<path fill="#FFFFFF" d="M96.5,24.9c-0.4-6.4,3.1-9,9.2-9c6.7,0,9.7,3.4,9.7,10v15.9h-4.9l-0.6-3c-1.4,2-3.9,3.3-6.8,3.3
	c-4.2,0-7.4-2.4-7.4-7.3c0-6.1,5.1-8.5,13.9-7.9c0-3.8-0.7-5.8-3.9-5.8c-2.6,0-3.6,0.9-3.5,3.7H96.5z M101.4,34.4
	c0,1.7,1.5,2.3,3.5,2.3c3.5,0,4.5-2.5,4.7-5.1C103.5,30.9,101.4,32.3,101.4,34.4z"/>
<path fill="#FFFFFF" d="M118,31.8V8.2h6v9.9c1.3-1.6,3.6-2.3,5.6-2.3c5.6,0,8.3,3.5,8.3,9.1v6.9c0,7.2-3.5,10.1-10,10.1
	C121.4,41.9,118,39,118,31.8z M124,25.5v6.2c0,3.1,0.9,4.9,3.9,4.9c2.4,0,4-1.2,4-4.9v-6.1c0-3.1-1.4-4.3-3.9-4.3
	C125.5,21.3,124,22.7,124,25.5z"/>
<rect id="_x3C_Řez_x3E__1_" fill="none" width="159" height="57"/>
<g>
	<g>
		<path fill="#FFFFFF" stroke="#FFFFFF" stroke-width="0.25" stroke-miterlimit="10" d="M24.6,45.1h1.8l1.1,4l1.1-4h1.7v5.5h-1.1
			v-4.1h-0.1l-1,3.9h-1.1l-1.1-3.9h-0.1v4.1h-1.1V45.1z"/>
		<path fill="#FFFFFF" stroke="#FFFFFF" stroke-width="0.25" stroke-miterlimit="10" d="M33.6,45.1h2.1l1.2,5.5h-1.1l-0.2-0.9h-1.9
			l-0.2,0.9h-1.1L33.6,45.1z M33.9,48.6h1.4l-0.5-2.5h-0.4L33.9,48.6z"/>
		<path fill="#FFFFFF" stroke="#FFFFFF" stroke-width="0.25" stroke-miterlimit="10" d="M41.2,47.6h1.6v2.8c0,0-1.1,0.2-1.9,0.2
			c-1.7,0-2.2-1-2.2-2.9c0-2,0.6-2.8,2.2-2.8c0.8,0,1.9,0.2,1.9,0.2l0,1c0,0-1-0.1-1.7-0.1c-0.9,0-1.2,0.3-1.2,1.8
			c0,1.4,0.2,1.8,1.2,1.8c0.3,0,0.7,0,0.7,0v-0.9h-0.5V47.6z"/>
		<path fill="#FFFFFF" stroke="#FFFFFF" stroke-width="0.25" stroke-miterlimit="10" d="M47.3,50.6h-1.1v-2.4l-1.7-3.2h1.2l1,1.9
			l1-1.9h1.2l-1.6,3.2V50.6z"/>
		<path fill="#FFFFFF" stroke="#FFFFFF" stroke-width="0.25" stroke-miterlimit="10" d="M51.7,45.1h2.1l1.2,5.5h-1.1l-0.2-0.9h-1.9
			l-0.2,0.9h-1.1L51.7,45.1z M52,48.6h1.4l-0.5-2.5h-0.4L52,48.6z"/>
		<path fill="#FFFFFF" stroke="#FFFFFF" stroke-width="0.25" stroke-miterlimit="10" d="M59.2,48.8h-1.1v1.8H57v-5.5h2.1
			c1.3,0,1.9,0.5,1.9,1.8c0,0.8-0.3,1.3-0.8,1.6l0.8,2.1h-1.2L59.2,48.8z M59.2,46.1h-1v1.6h1c0.6,0,0.8-0.3,0.8-0.8
			C59.9,46.4,59.7,46.1,59.2,46.1z"/>
		<path fill="#FFFFFF" stroke="#FFFFFF" stroke-width="0.25" stroke-miterlimit="10" d="M66.5,45.1H70v1.1h-2.4v1.6h1.9v1h-1.9v1.8
			h-1.1V45.1z"/>
		<path fill="#FFFFFF" stroke="#FFFFFF" stroke-width="0.25" stroke-miterlimit="10" d="M72.1,45.1h1.1v5.5h-1.1V45.1z"/>
		<path fill="#FFFFFF" stroke="#FFFFFF" stroke-width="0.25" stroke-miterlimit="10" d="M75.7,50.6v-5.5h1.1v4.5h2v1.1H75.7z"/>
		<path fill="#FFFFFF" stroke="#FFFFFF" stroke-width="0.25" stroke-miterlimit="10" d="M80.9,45.1h1.8l1.1,4l1.1-4h1.7v5.5h-1.1
			v-4.1h-0.1l-1,3.9h-1.1l-1.1-3.9H82v4.1h-1.1V45.1z"/>
		<path fill="#FFFFFF" stroke="#FFFFFF" stroke-width="0.25" stroke-miterlimit="10" d="M89.8,45.1h2.1l1.2,5.5H92l-0.2-0.9h-1.9
			l-0.2,0.9h-1.1L89.8,45.1z M90.1,48.6h1.4L91,46.1h-0.4L90.1,48.6z"/>
		<path fill="#FFFFFF" stroke="#FFFFFF" stroke-width="0.25" stroke-miterlimit="10" d="M95.1,50.6v-5.5H97c1.9,0,2.3,0.8,2.3,2.7
			c0,1.9-0.4,2.9-2.3,2.9H95.1z M97,46.1h-0.7v3.4H97c1.1,0,1.2-0.7,1.2-1.8C98.1,46.6,98,46.1,97,46.1z"/>
		<path fill="#FFFFFF" stroke="#FFFFFF" stroke-width="0.25" stroke-miterlimit="10" d="M102.3,45.1h2.1l1.2,5.5h-1.1l-0.2-0.9h-1.9
			l-0.2,0.9h-1.1L102.3,45.1z M102.6,48.6h1.4l-0.5-2.5h-0.4L102.6,48.6z"/>
		<path fill="#FFFFFF" stroke="#FFFFFF" stroke-width="0.25" stroke-miterlimit="10" d="M107,45.1h4v1.1h-1.4v4.5h-1.1v-4.5H107
			V45.1z"/>
		<path fill="#FFFFFF" stroke="#FFFFFF" stroke-width="0.25" stroke-miterlimit="10" d="M114.9,45.1c1,0,1.7,0.4,1.7,1.4
			c0,0.7-0.2,1-0.6,1.3c0.5,0.2,0.7,0.5,0.7,1.3c0,1.1-0.7,1.6-1.8,1.6h-2.2v-5.5H114.9z M113.9,46.1v1.2h1c0.4,0,0.6-0.2,0.6-0.7
			c0-0.4-0.2-0.6-0.6-0.6H113.9z M113.9,48.3v1.2h1c0.5,0,0.7-0.2,0.7-0.6c0-0.4-0.2-0.6-0.7-0.6H113.9z"/>
		<path fill="#FFFFFF" stroke="#FFFFFF" stroke-width="0.25" stroke-miterlimit="10" d="M119.8,45.1h2.1l1.2,5.5H122l-0.2-0.9h-1.9
			l-0.2,0.9h-1.1L119.8,45.1z M121.7,42.8l0.4,1l-2.1,0.6l-0.3-0.9L121.7,42.8z M120.1,48.6h1.4l-0.5-2.5h-0.4L120.1,48.6z"/>
		<path fill="#FFFFFF" stroke="#FFFFFF" stroke-width="0.25" stroke-miterlimit="10" d="M125,45.1h3.6v1.1l-2.2,3.3v0.1h2.2v1.1H125
			v-1.1l2.2-3.3v-0.1H125V45.1z"/>
		<path fill="#FFFFFF" stroke="#FFFFFF" stroke-width="0.25" stroke-miterlimit="10" d="M131,45.1h1.1v5.5H131V45.1z"/>
		<path fill="#FFFFFF" stroke="#FFFFFF" stroke-width="0.25" stroke-miterlimit="10" d="M137.8,46.2c0,0-1.1-0.1-1.6-0.1
			c-0.6,0-0.9,0.2-0.9,0.5c0,0.3,0.2,0.5,1.1,0.8c1.2,0.4,1.5,0.7,1.5,1.7c0,1.1-0.8,1.7-1.9,1.7c-0.6,0-1.7-0.2-1.7-0.2l0.1-1
			c0,0,1,0.1,1.6,0.1c0.6,0,0.8-0.2,0.8-0.6c0-0.3-0.2-0.5-1-0.7c-1.2-0.4-1.7-0.8-1.7-1.7c0-1.1,0.8-1.6,2-1.6
			c0.6,0,1.7,0.2,1.7,0.2L137.8,46.2z"/>
	</g>
</g>
</svg>
